<svg width="99.712" height="28.737" xmlns="http://www.w3.org/2000/svg"><path d="M34.88 11.265v.128a6.05 6.05 0 0 0 .053.796c.322 2.42 2.079 4.84 4.798 6.767a20.013 20.013 0 0 0 3.981 2.165c-.448 1.856-1.472 2.752-3.2 2.752a4.134 4.134 0 0 1-.717-.057c-.722-.127-1.317-.475-2.099-1.159a66.249 66.249 0 0 0-.034.333c-.089.881-.094 1.157-.094 1.572a109.393 109.393 0 0 0 0 .079c0 2.368 1.472 3.776 3.904 3.776a5.276 5.276 0 0 0 4.933-3.18 8.09 8.09 0 0 0 .699-2.58h1.408c-.184-1.348-.426-1.992-1.288-2.942a10.7 10.7 0 0 0-.12-.13 6.516 6.516 0 0 0-.035-.443c-.474-4.209-5.005-8.418-10.013-9.221 1.482-2.964 7.741-1.206 8.656-5a4.328 4.328 0 0 0 .112-1.016 3.699 3.699 0 0 0-2.47-3.564 5.404 5.404 0 0 0-1.946-.34h-.64a3.85 3.85 0 0 1 .569.473c.22.226.381.462.488.712a2.009 2.009 0 0 1 .159.799 3.058 3.058 0 0 1-1.128 2.336c-1.649 1.523-4.662 2.519-5.976 5.6h-.512c-1.867 0-3.778.666-5.771 2.037a18.449 18.449 0 0 0-1.205.907c.832-1.92 1.088-2.88 1.088-4.16a5.685 5.685 0 0 0-3.474-5.04 7.074 7.074 0 0 0-2.99-.656 8.69 8.69 0 0 0-.4.009 10.414 10.414 0 0 0-7.856 4.407 12.119 12.119 0 0 0-1.642 4.686c-.426 2.583-.394 5.165-.973 6.836a3.825 3.825 0 0 1-.393.83 4.733 4.733 0 0 1-1.322 1.417 3.837 3.837 0 0 1-2.198.695c-1.957 0-3.446-1.402-3.575-3.314a4.023 4.023 0 0 1-.009-.27 4.01 4.01 0 0 1 .017-.375c.04-.438.159-.851.381-1.524a57.432 57.432 0 0 1 .05-.149c-.568-.883-1.135-1.207-1.948-1.216a3.182 3.182 0 0 0-.036 0 2.398 2.398 0 0 0-1 .203C.416 15.561 0 16.229 0 17.089c0 3.712 12.416 11.648 20.8 11.648a15.753 15.753 0 0 0 5.995-1.144c3.539-1.463 5.909-4.184 5.909-7.304 0-2.369-.922-3.7-3.697-5.252a23.839 23.839 0 0 0-.463-.252 5.65 5.65 0 0 1 1.968-2.171c1.198-.805 2.74-1.312 4.368-1.349ZM51.2 22.657h1.408a7.984 7.984 0 0 0 .776 2.74 5.258 5.258 0 0 0 4.856 3.02c2.432 0 3.904-1.408 3.904-3.776a51.896 51.896 0 0 0 0-.155c-.001-.365-.01-.653-.087-1.427a62.819 62.819 0 0 0-.041-.402c-1.024.896-1.728 1.216-2.816 1.216a3.642 3.642 0 0 1-1.278-.209c-.666-.247-1.168-.718-1.523-1.42A5.181 5.181 0 0 1 56 21.121c5.376-2.176 8.832-6.016 8.832-9.856 2.816.064 5.376 1.536 6.336 3.52-2.987 1.584-4.058 2.879-4.153 5.155a8.346 8.346 0 0 0-.007.349 7.225 7.225 0 0 0 2.944 5.569c1.294 1.048 2.948 1.866 4.828 2.358a16.351 16.351 0 0 0 4.132.521 17.045 17.045 0 0 0 3.129-.316c8.028-1.509 17.671-8.061 17.671-11.332a2.165 2.165 0 0 0-.266-1.078c-.343-.603-.995-.97-1.846-.97a2.133 2.133 0 0 0-.92.182c-.389.181-.726.509-1.064 1.034.32.96.448 1.408.448 2.048 0 1.956-1.402 3.446-3.313 3.575a4.023 4.023 0 0 1-.271.009 3.97 3.97 0 0 1-2.96-1.366 5.105 5.105 0 0 1-.56-.746c-1-1.542-.861-4.604-1.366-7.666a12.119 12.119 0 0 0-1.642-4.686 10.414 10.414 0 0 0-7.856-4.407 8.69 8.69 0 0 0-.4-.009 6.952 6.952 0 0 0-4.268 1.437 5.425 5.425 0 0 0-2.196 4.259c0 1.206.227 2.128.95 3.837a39.214 39.214 0 0 0 .138.323c-2.624-2.176-4.736-2.944-7.488-2.944a7.004 7.004 0 0 0-1.05-1.721c-2.279-2.763-6.054-3.338-6.054-6.215 0-.729.346-1.342 1.092-1.895a4.742 4.742 0 0 1 .124-.089c-2.944 0-5.056 1.28-5.056 3.904a4.017 4.017 0 0 0 .205 1.332c.884 2.53 4.436 2.284 6.77 3.207a3.168 3.168 0 0 1 1.793 1.477 13.196 13.196 0 0 0-8.551 5.47c-.796 1.186-1.318 2.468-1.462 3.751a6.516 6.516 0 0 0-.035.443 9.051 9.051 0 0 0-.322.36c-.654.778-.887 1.391-1.052 2.477a15.328 15.328 0 0 0-.034.235Zm-7.232-4.224v.256a18.5 18.5 0 0 1-.677-.234c-1.726-.632-4.637-1.961-6.053-3.932a4.018 4.018 0 0 1-.822-2.362c0-.146.037-.366.083-.632a46.346 46.346 0 0 0 .045-.264 7.983 7.983 0 0 1 7.37 6.403 5.466 5.466 0 0 1 .054.765Zm19.2-7.168a7.342 7.342 0 0 0-4.62 1.867c-1.69 1.456-2.804 3.558-2.804 5.557 1.324-.427 4.244-1.567 6.04-3.362a4.516 4.516 0 0 0 1.512-3.166 1.263 1.263 0 0 0-.005-.101c-.015-.193-.068-.467-.122-.786a21.405 21.405 0 0 1-.001-.009Z" vector-effect="non-scaling-stroke" stroke="none" stroke-linecap="round" fill-rule="evenodd" font-size="12" stroke-width="0" style="stroke:#000;stroke-width:0;fill:#000"/></svg>
